<?xml version="1.0" encoding="UTF-8" standalone="no"?>
<!-- Created with Inkscape (http://www.inkscape.org/) -->

<svg
   width="8.5mm"
   height="8.5mm"
   viewBox="0 0 8.5 8.5"
   version="1.1"
   id="svg1"
   inkscape:version="1.4.2 (ebf0e94, 2025-05-08)"
   sodipodi:docname="favicon.svg"
   inkscape:export-filename="..\favicon.png"
   inkscape:export-xdpi="96"
   inkscape:export-ydpi="96"
   xmlns:inkscape="http://www.inkscape.org/namespaces/inkscape"
   xmlns:sodipodi="http://sodipodi.sourceforge.net/DTD/sodipodi-0.dtd"
   xmlns="http://www.w3.org/2000/svg"
   xmlns:svg="http://www.w3.org/2000/svg"
   xmlns:rdf="http://www.w3.org/1999/02/22-rdf-syntax-ns#"
   xmlns:cc="http://creativecommons.org/ns#"
   xmlns:dc="http://purl.org/dc/elements/1.1/">
  <defs
     id="defs1" />
  <sodipodi:namedview
     id="base"
     pagecolor="#ffffff"
     bordercolor="#000000"
     borderopacity="0.3"
     inkscape:pageopacity="0.0"
     inkscape:pageshadow="2"
     inkscape:zoom="15.839192"
     inkscape:cx="16.825353"
     inkscape:cy="34.124215"
     inkscape:document-units="mm"
     inkscape:showpageshadow="2"
     inkscape:pagecheckerboard="0"
     inkscape:deskcolor="#d1d1d1"
     showguides="false"
     inkscape:window-width="3818"
     inkscape:window-height="2104"
     inkscape:window-x="0"
     inkscape:window-y="0"
     inkscape:window-maximized="0"
     inkscape:current-layer="svg1" />
  <metadata
     id="metadata1">
    <rdf:RDF>
      <cc:Work
         rdf:about="">
        <dc:format>image/svg+xml</dc:format>
        <dc:type
           rdf:resource="http://purl.org/dc/dcmitype/StillImage" />
      </cc:Work>
    </rdf:RDF>
  </metadata>
  <path
     d="M 1.6269893,7.8636971 C 1.4443396,7.7736958 1.3649266,7.482515 1.4787518,7.3289833 1.5528706,7.2283936 2.7996537,6.0345524 2.9267145,5.941904 3.212601,5.7354303 3.6043715,5.9816104 3.5276057,6.3177919 3.5117231,6.3945577 3.3687798,6.5480894 2.7864183,7.1251568 2.3893536,7.5195744 2.0399366,7.8531087 2.0081714,7.8716384 c -0.08206,0.045001 -0.2805923,0.039706 -0.3811821,-0.00794 z"
     id="path8-4"
     style="fill:#3b7bbc;stroke-width:0.052942" />
  <path
     d="M 6.5955923,7.7339893 C 6.5373561,7.7101654 6.1482327,7.3342775 5.5499886,6.7307392 L 4.5970333,5.7671955 4.3587945,5.75396 C 4.0596724,5.7354303 3.8426104,5.6639587 3.588489,5.4918973 3.2708372,5.2801295 3.0749519,5.0180668 2.9637738,4.6633556 2.7917125,4.1101121 3.0140687,3.4509847 3.482605,3.1280388 L 3.6334896,3.024802 2.6964169,2.0850822 C 2.1802328,1.566251 1.7434616,1.1162443 1.7275791,1.0844791 1.6111067,0.85418161 1.8255217,0.6000602 2.1405263,0.6000602 l 0.1270608,-0.002647 1.0958985,1.106487 c 1.4347271,1.4479626 1.7259079,1.7497317 1.9535583,2.0197357 0.1032369,0.1244136 0.2435331,0.2594156 0.3123576,0.3017692 0.1561788,0.1005897 0.1985324,0.1826498 0.1985324,0.3944176 0,0.3150047 -0.1111782,0.5638319 -0.3732409,0.8417772 L 5.2958672,5.431014 6.1667624,6.2913209 c 0.4791247,0.4738305 0.892072,0.9000133 0.918543,0.9503082 0.076766,0.1535317 0.01853,0.3679466 -0.1270607,0.4632421 -0.092648,0.060883 -0.2567685,0.074119 -0.3626524,0.029118 z M 4.6790933,4.8936532 C 4.8035069,4.8301228 4.9438031,4.6792382 4.9967451,4.5548246 5.0523341,4.4224697 5.0443929,4.1312889 4.9808625,4.0015811 4.7320353,3.4880441 4.0437898,3.4483376 3.77908,3.9354037 3.5858419,4.2901148 3.720844,4.7189447 4.0887905,4.9015945 c 0.1164723,0.055589 0.1641201,0.066177 0.3097104,0.058236 0.105884,-0.00794 0.214415,-0.031765 0.2805924,-0.066177 z"
     id="path9-5"
     style="fill:#3b7bbc;stroke-width:0.052942" />
  <path
     d="M 0.72168182,6.9054476 C 0.58667982,6.8392702 0.52579657,6.7386805 0.51256108,6.5692662 L 0.49932559,6.4210287 1.2616898,5.6666058 C 1.6905197,5.2430701 2.050525,4.9068886 2.0875844,4.8989474 2.1934683,4.8724764 2.3761181,4.9042415 2.4608252,4.9651248 2.564062,5.0365964 2.6355337,5.213952 2.6117098,5.3357185 2.5958272,5.4151315 2.4740607,5.5474864 1.8625811,6.1510247 1.4575751,6.5480894 1.0922755,6.8922121 1.0446278,6.9133889 0.93609676,6.9663309 0.83285993,6.9636838 0.72168182,6.9054476 Z"
     id="path11-1"
     style="fill:#3b7bbc;stroke-width:0.052942" />
  <path
     d="M 6.291176,3.7474597 C 6.0926437,3.6309874 6.0079365,3.4430435 6.0820553,3.2842176 6.1455856,3.1545098 7.2150132,2.1142003 7.3526623,2.053317 7.4558991,2.005669 7.4717817,2.005669 7.5776656,2.042729 7.723256,2.095671 7.8053161,2.1724368 7.8397283,2.2889091 c 0.050295,0.187944 0.029118,0.2197092 -0.6088325,0.862954 l -0.6008912,0.606185 -0.1429433,0.010588 c -0.079413,0.00529 -0.1667672,-0.00529 -0.1958853,-0.021177 z"
     id="path17-7"
     style="fill:#3b7bbc;stroke-width:0.052942" />
  <path
     d="M 6.8020659,6.2701441 6.1191146,5.5898399 V 5.4733676 c 0,-0.1482375 0.087354,-0.2673569 0.2514743,-0.3467698 C 6.5955923,5.0180668 6.6088278,5.0260081 7.3050145,5.7169006 7.6464902,6.0557292 7.9403181,6.3627925 7.9614948,6.402499 8.0885556,6.646032 7.8900232,6.9530954 7.6041366,6.9530954 H 7.4850172 Z"
     id="path26-1"
     style="fill:#ffd700;stroke-width:0.052942;fill-opacity:1" />
  <path
     d="M 2.2278806,3.3821602 C 2.1775857,3.3530421 1.8466985,3.0406846 1.4946344,2.6859734 0.95727354,2.1459654 0.85403672,2.026846 0.83815413,1.944786 0.78785927,1.6721349 1.1505117,1.3994838 1.3781621,1.5424271 c 0.042354,0.029118 0.3626524,0.3308872 0.7120694,0.67501 0.7226577,0.7120693 0.7464816,0.7438345 0.6432448,0.9556024 -0.1058839,0.2223562 -0.322946,0.3097104 -0.5055957,0.2091207 z"
     id="path27-6"
     style="fill:#ffd700;stroke-width:0.052942;fill-opacity:1" />
  <path
     d="M 5.2799846,2.8289167 C 5.1635123,2.7230328 5.1211587,2.5986192 5.1529239,2.458323 5.1767478,2.3444978 6.3335296,1.2035985 6.4685316,1.1585979 c 0.2752982,-0.090001 0.5320667,0.1720613 0.4579479,0.4658892 -0.01853,0.08206 -1.1144282,1.2044296 -1.2361947,1.26796 -0.039706,0.021177 -0.1244136,0.037059 -0.187944,0.037059 -0.097943,0 -0.1323549,-0.015883 -0.2223562,-0.1005894 z"
     id="path28"
     style="fill:#ffd700;stroke-width:0.052942;fill-opacity:1" />
</svg>
