<?xml version="1.0" encoding="UTF-8" standalone="no"?>
<svg
   version="1.1"
   id="Layer_1"
   x="0px"
   y="0px"
   width="100%"
   viewBox="0 0 1312 736"
   enable-background="new 0 0 1312 736"
   xml:space="preserve"
   sodipodi:docname="full logo.svg"
   inkscape:version="1.4.2 (ebf0e94, 2025-05-08)"
   xmlns:inkscape="http://www.inkscape.org/namespaces/inkscape"
   xmlns:sodipodi="http://sodipodi.sourceforge.net/DTD/sodipodi-0.dtd"
   xmlns="http://www.w3.org/2000/svg"
   xmlns:svg="http://www.w3.org/2000/svg"><defs
   id="defs82" /><sodipodi:namedview
   id="namedview82"
   pagecolor="#ffffff"
   bordercolor="#000000"
   borderopacity="0.25"
   inkscape:showpageshadow="2"
   inkscape:pageopacity="0.0"
   inkscape:pagecheckerboard="0"
   inkscape:deskcolor="#d1d1d1"
   inkscape:zoom="2.8284271"
   inkscape:cx="733.97684"
   inkscape:cy="356.20504"
   inkscape:window-width="3840"
   inkscape:window-height="2126"
   inkscape:window-x="-11"
   inkscape:window-y="-11"
   inkscape:window-maximized="1"
   inkscape:current-layer="g85" />


















































































<g
   id="g84"
   transform="matrix(0.98692115,0,0,0.98692115,7.9161253,8.8176238)"><path
     d="m 607.75,418.5 c -4.15,-0.55 -4.75,-1.4 -4.75,-6.75 0,-5.6 0.2,-5.75 7.1,-5.6 5.25,0.1 5.35,0.1 6.8,-1.3 1.55,-1.5 3.85,-6.1 4.4,-8.8 0.3,-1.55 0.3,-1.55 -1.7,-1.55 -1.6,0 -2.35,-0.35 -3.65,-1.6 -2.15,-2.15 -3.25,-4.75 -6.9,-16.4 -1.7,-5.35 -4.35,-13.7 -5.9,-18.5 -3,-9.35 -4.2,-14.25 -3.8,-15.3 0.65,-1.75 2.85,-2.4 7.9,-2.4 2.8,0.05 5.5,0.3 6.1,0.6 1.15,0.65 1.95,2.75 3.65,9.6 1.7,6.75 8.6,30.7 9,31.15 0.2,0.2 0.7,-0.55 1.15,-1.75 1,-2.6 4.9,-16.9 7.85,-28.9 1.2,-4.8 2.5,-9.1 2.85,-9.55 0.9,-1.05 10.25,-1.8 12.4,-0.95 2.85,1.1 2.9,2.1 0.3,11 -1.1,3.7 -3.55,12.15 -5.5,18.75 -5.05,17.25 -10.1,32.35 -12.45,37.25 -2.2,4.6 -5.05,7.95 -8.05,9.5 -3.55,1.8 -9.95,2.35 -16.8,1.5 z"
     id="path10-5"
     style="fill:#3b7bbc" /><path
     d="m 412.05,396 c -5.8,-1.25 -11.75,-5.35 -14.15,-9.85 -2.8,-5.2 -3.65,-9.2 -3.65,-17.9 0,-11.45 1.8,-17.2 7,-22.5 5.35,-5.4 14.55,-7.75 24.85,-6.25 5.25,0.75 8.55,2.25 11.95,5.4 4.85,4.5 6.75,9.3 7.25,18.6 0.35,6.15 -0.25,9.35 -1.95,9.95 -0.6,0.2 -8.55,0.3 -17.65,0.15 -11.7,-0.1 -16.7,0 -16.95,0.35 -0.55,0.9 1.15,5.85 2.55,7.55 2,2.35 3.95,3.1 8.7,3.35 3.15,0.2 6.2,-0.1 11.9,-1.05 9.95,-1.7 9.7,-1.8 9.5,4.6 -0.15,5.6 -0.05,5.45 -6.2,6.9 -4.05,0.9 -19.8,1.4 -23.15,0.7 z m 10.6,-33 h 9 l -0.3,-3.05 c -0.55,-6.15 -4.25,-9.1 -11.35,-9.1 -2.8,0 -4.25,0.25 -5.75,1 -3.55,1.85 -4.8,3.75 -5.45,8.25 -0.5,3.2 -0.15,3.6 2.6,3.2 1.25,-0.15 6.3,-0.3 11.25,-0.3 z"
     id="path12-7"
     style="fill:#3b7bbc" /><path
     d="m 522.8,395.7 c -4.75,-1.05 -8.65,-3.15 -11.45,-6.15 -4.4,-4.7 -6.05,-10.55 -6.05,-21.8 0,-5.45 0.25,-8.45 0.85,-10.95 2.35,-9.3 8.3,-15.05 17.6,-17.05 6.5,-1.35 14.85,-0.6 20.05,1.8 3.2,1.5 7.7,6 9.35,9.45 2.55,5.2 3.55,13.3 2.3,18.95 -0.95,4.4 -0.1,4.25 -18.95,3.95 -9.15,-0.15 -16.65,-0.1 -16.8,0.15 -0.15,0.25 0.15,1.8 0.6,3.45 2.05,7.3 8.3,8.95 24,6.25 7.05,-1.25 7.4,-1.25 8.3,-0.4 0.85,0.8 0.95,1.45 0.8,5.25 -0.05,2.4 -0.4,4.6 -0.65,4.9 -2.3,2.25 -22.95,3.8 -29.95,2.2 z M 542,361.4 c 0,-2.3 -0.95,-5.4 -2.15,-7.1 -2.15,-3 -8,-4.4 -12.65,-3.05 -4.55,1.3 -6.35,3.75 -7.45,9.9 L 519.4,363 h 11.3 11.3 z"
     id="path13-1"
     style="fill:#3b7bbc" /><path
     d="m 468,395.65 c -3.65,-0.5 -4.75,-2 -7.2,-9.8 -5,-15.75 -12.3,-42.05 -12,-43.05 0.75,-2.5 1.55,-2.8 7,-2.8 5.7,0 7.4,0.5 8.15,2.45 0.45,1.15 2.4,8.3 9.35,34.25 0.95,3.55 1.85,6.6 2,6.75 0.75,0.75 1.3,-1.35 7.4,-26.4 2.05,-8.4 4.05,-15.5 4.45,-15.95 0.85,-0.85 9.7,-1.5 12.1,-0.9 2.05,0.5 2.4,2.3 1.3,6.7 -4.05,16.5 -11.6,42.9 -13.2,46.05 -1.05,2.05 -3.45,2.7 -10.85,2.85 -3.7,0.05 -7.55,0 -8.5,-0.15 z"
     id="path15-5"
     style="fill:#3b7bbc" /><path
     d="m 567.25,395.65 c -0.55,-0.15 -1.4,-0.6 -1.85,-1.05 -0.85,-0.7 -0.9,-2.5 -0.9,-24.05 0,-17.45 0.15,-23.6 0.65,-24.55 0.85,-1.7 6.2,-4.3 10.95,-5.25 2.35,-0.45 6.55,-0.75 10.75,-0.75 9.4,0 9.3,-0.05 9.05,6.75 -0.1,3.25 -0.4,5.4 -0.85,5.9 -0.55,0.7 -1.65,0.8 -6.75,0.7 -6.95,-0.1 -8.45,0.4 -9,3.2 -0.15,0.85 -0.3,9.5 -0.3,19.2 0,21.35 0.45,19.95 -6.35,20.1 -2.4,0.05 -4.85,-0.05 -5.4,-0.2 z"
     id="path16-2"
     style="fill:#3b7bbc" /><path
     d="m 677.95,396.05 c -4.75,-0.9 -7.6,-3.1 -9.55,-7.3 -1.1,-2.4 -1.15,-3.1 -1.4,-19 l -0.25,-16.5 -4.35,-0.25 c -2.35,-0.15 -4.4,-0.35 -4.55,-0.5 -0.1,-0.15 -0.35,-2.5 -0.55,-5.3 -0.4,-6.6 -0.25,-6.85 5,-7 l 3.95,-0.1 0.25,-6.8 c 0.3,-8.8 0.05,-8.55 7.95,-8.55 4.25,0 6.1,0.2 6.7,0.7 0.7,0.55 0.85,1.75 0.85,7.25 0,3.6 0.2,6.8 0.4,7.15 0.25,0.45 2.55,0.65 7.35,0.75 l 7,0.15 v 5.75 5.75 l -7.35,0.15 -7.4,0.15 v 12.6 c 0,7.1 0.25,13.4 0.5,14.45 0.8,2.8 2.55,3.9 6.2,3.9 1.65,-0.05 4,-0.2 5.1,-0.45 3.4,-0.65 3.7,-0.25 3.7,5.4 0,3.7 -0.2,5.1 -0.7,5.55 -2.05,1.65 -13.8,2.95 -18.85,2.05 z"
     id="path18-6"
     style="fill:#000000;fill-opacity:1" /><path
     d="m 720.7,395.8 c -8.95,-2.05 -14.8,-7.95 -17.05,-17.15 -1.05,-4.45 -1.05,-15.5 0,-20.55 0.95,-4.4 3.35,-8.95 6.2,-11.95 2.55,-2.6 8.1,-5.4 12.4,-6.2 4.5,-0.85 14.75,-0.3 18.75,1 11.45,3.65 17.25,15.6 15.6,32.1 -0.95,9.5 -3.45,14.75 -9.1,19 -4.1,3.05 -7.95,4.05 -16.5,4.25 -4.9,0.1 -8.25,-0.05 -10.3,-0.5 z m 14.45,-13 c 3.95,-1.65 5.45,-5 5.75,-12.8 0.4,-9.9 -1.4,-14.55 -6.2,-16.2 -4.75,-1.6 -10.2,-0.75 -13,2.05 -3.05,3.05 -4.45,11.35 -3,18.1 1.5,7 4.4,9.5 11.2,9.55 2,0 4.35,-0.3 5.25,-0.7 z"
     id="path19-1"
     style="fill:#000000;fill-opacity:1" /><path
     d="m 780.75,395.55 c -4.9,-1.2 -7.9,-2.85 -10.8,-5.9 -4.6,-4.85 -6.45,-10.95 -6.45,-21.3 0,-15.45 4.5,-23.55 15.3,-27.4 4.1,-1.45 15.45,-1.9 20.25,-0.75 9.35,2.15 14.6,7.35 17.3,16.85 1.25,4.45 1.25,17.8 0,22.4 -1.85,6.9 -5.75,11.9 -11.1,14.35 -5.85,2.7 -17.4,3.5 -24.5,1.75 z M 795.1,383 c 4.55,-1.3 6.6,-5.9 6.55,-14.75 0,-11.25 -3,-15.25 -11.25,-15.25 -7.35,0 -10.4,3.3 -11.4,12.15 -1,8.85 1.1,15.3 5.7,17.4 2.3,1.05 7.4,1.25 10.4,0.45 z"
     id="path20-4"
     style="fill:#000000;fill-opacity:1" /><path
     d="m 837.75,395.95 c -3.9,-0.4 -6.15,-1.4 -8.1,-3.6 -3.4,-3.85 -3.35,-3.5 -3.55,-39.85 -0.05,-18 -0.05,-33.2 0.1,-33.8 0.4,-1.6 2.45,-2.2 7.75,-2.2 4.2,0 5.1,0.15 6.25,1.05 l 1.3,1 v 30.9 30.9 l 1.1,1.4 c 1.05,1.35 1.15,1.4 5.25,1.1 5.15,-0.3 5.25,-0.2 5.05,6.5 l -0.15,4.9 -2,0.65 c -2.7,0.9 -9.3,1.4 -13,1.05 z"
     id="path21-2"
     style="fill:#000000;fill-opacity:1" /><path
     d="m 903.55,395.95 c -4.8,-0.8 -8.15,-3.5 -10.35,-8.25 -0.85,-1.75 -0.95,-3.8 -1.1,-19.05 l -0.15,-17.15 h -4.25 c -5.6,0 -6.1,-0.45 -6.1,-5.85 0,-2.2 0.15,-4.25 0.35,-4.55 0.2,-0.35 2.25,-0.6 5.05,-0.7 l 4.75,-0.15 L 892,333 c 0.15,-4 0.45,-7.55 0.65,-7.85 0.3,-0.45 1.9,-0.65 5.05,-0.65 2.9,0 4.9,0.25 5.45,0.65 0.7,0.5 0.85,1.75 0.95,7.85 l 0.15,7.25 7.6,0.15 c 7.15,0.1 7.65,0.2 8.2,1.15 0.6,1.2 0.45,8.6 -0.2,9.3 -0.25,0.2 -3.9,0.45 -8.15,0.55 l -7.7,0.15 v 13.85 c 0,14.85 0.25,16.95 2.35,18.9 1.5,1.4 4.6,1.6 10,0.65 4.35,-0.75 4.65,-0.45 4.65,4.8 v 4.15 l -2,0.8 c -1.85,0.75 -9.45,1.85 -11.75,1.75 -0.55,-0.05 -2.25,-0.25 -3.7,-0.5 z"
     id="path22-3"
     style="fill:#000000;fill-opacity:1" /><path
     d="m 943.2,395.75 c -4.9,-0.85 -7.75,-2.25 -10.95,-5.3 -4.9,-4.65 -6.85,-10.95 -6.85,-22.45 0,-7.75 0.8,-12 3.15,-16.8 3.95,-8 10.95,-11.75 22,-11.75 6.4,0.05 9.7,0.65 13.85,2.7 7.6,3.7 11.4,11.95 11,24.15 -0.1,3.75 -0.35,5.8 -0.85,6.35 -0.6,0.75 -2.55,0.85 -18.35,0.85 -14.8,0 -17.7,0.1 -17.7,0.7 0,0.4 0.45,2.15 1,3.95 1.6,5.15 4.15,7 10.35,7.6 3.9,0.4 12.4,-0.45 16.15,-1.55 3.1,-0.95 5.8,-0.9 6.2,0.1 0.15,0.45 0.3,2.45 0.3,4.5 0,3 -0.2,3.9 -0.95,4.65 -2.5,2.5 -19.7,3.9 -28.35,2.3 z m 19.6,-32.95 c 0.4,-1.05 -0.65,-6.25 -1.7,-8.25 -2.65,-5.3 -14.55,-6.05 -19.35,-1.3 -1.8,1.85 -3.25,5.65 -3.25,8.6 v 1.65 h 12 c 9.85,0 12.1,-0.15 12.3,-0.7 z"
     id="path23-2"
     style="fill:#000000;fill-opacity:1" /><path
     d="m 1001.1,395.75 c -5.05,-0.9 -8.8,-2.85 -12.15,-6.35 -3.3,-3.4 -5.05,-7.4 -6,-13.9 -0.75,-5.15 -0.3,-15.5 0.8,-19.75 2,-7.35 6.75,-12.4 14.05,-14.85 3.05,-1 4.35,-1.15 11.2,-1.1 8.25,0.05 16.15,1.15 17.4,2.4 1,0.95 1.1,7.35 0.15,8.45 -0.85,1.05 -2.5,1.05 -10.2,0.05 -15.4,-2.05 -20.55,1.45 -21.65,14.55 -0.7,8.55 1.6,15.65 5.95,18.6 3.15,2.1 6.45,2.5 14.1,1.65 10.8,-1.2 11.2,-1.2 12.35,-0.15 0.9,0.8 1,1.3 0.75,4.6 -0.2,2.25 -0.55,3.85 -0.95,4.1 -1.7,1.05 -12.4,2.45 -18.4,2.4 -2.05,0 -5.4,-0.35 -7.4,-0.7 z"
     id="path24-2"
     style="fill:#000000;fill-opacity:1" /><path
     d="m 1038,395.7 c -0.7,-0.15 -1.55,-0.65 -1.85,-1.1 -0.85,-1.05 -0.95,-74.6 -0.15,-76.15 0.5,-0.85 1.1,-0.95 5.8,-0.95 5.15,0 5.25,0 5.7,1.3 0.3,0.7 0.5,6.45 0.5,12.8 0,10.75 0.05,11.5 0.9,11.25 0.45,-0.15 2.55,-0.9 4.6,-1.7 3.45,-1.25 4.3,-1.4 10.75,-1.4 7.55,0 9.9,0.55 13.85,3.15 2.25,1.5 5.15,5.6 6.25,8.9 1.2,3.5 1.6,41.4 0.5,42.9 -0.6,0.85 -1.4,1 -5.5,1 -3.75,0.05 -5,-0.15 -5.6,-0.75 -0.7,-0.65 -0.8,-2.85 -0.75,-16.75 0,-26.95 -0.4,-27.95 -11,-27.95 -5.6,0 -8.3,0.7 -12.1,3.1 l -1.9,1.15 v 20.2 c 0,18.3 -0.1,20.2 -0.8,20.5 -1.15,0.45 -7.7,0.8 -9.2,0.5 z"
     id="path25"
     style="fill:#000000;fill-opacity:1" /><g
     id="g85"
     transform="translate(0.85081701,-0.89559686)"><path
       d="m 249.15,432.2 c -3.45,-1.7 -4.95,-7.2 -2.8,-10.1 1.4,-1.9 24.95,-24.45 27.35,-26.2 5.4,-3.9 12.8,0.75 11.35,7.1 -0.3,1.45 -3,4.35 -14,15.25 -7.5,7.45 -14.1,13.75 -14.7,14.1 -1.55,0.85 -5.3,0.75 -7.2,-0.15 z"
       id="path8-4"
       style="fill:#3b7bbc" /><path
       d="m 343,429.75 c -1.1,-0.45 -8.45,-7.55 -19.75,-18.95 l -18,-18.2 -4.5,-0.25 C 295.1,392 291,390.65 286.2,387.4 c -6,-4 -9.7,-8.95 -11.8,-15.65 -3.25,-10.45 0.95,-22.9 9.8,-29 l 2.85,-1.95 -17.7,-17.75 c -9.75,-9.8 -18,-18.3 -18.3,-18.9 -2.2,-4.35 1.85,-9.15 7.8,-9.15 l 2.4,-0.05 20.7,20.9 c 27.1,27.35 32.6,33.05 36.9,38.15 1.95,2.35 4.6,4.9 5.9,5.7 2.95,1.9 3.75,3.45 3.75,7.45 0,5.95 -2.1,10.65 -7.05,15.9 l -3,3.2 16.45,16.25 c 9.05,8.95 16.85,17 17.35,17.95 1.45,2.9 0.35,6.95 -2.4,8.75 -1.75,1.15 -4.85,1.4 -6.85,0.55 z M 306.8,376.1 c 2.35,-1.2 5,-4.05 6,-6.4 1.05,-2.5 0.9,-8 -0.3,-10.45 -4.7,-9.7 -17.7,-10.45 -22.7,-1.25 -3.65,6.7 -1.1,14.8 5.85,18.25 2.2,1.05 3.1,1.25 5.85,1.1 2,-0.15 4.05,-0.6 5.3,-1.25 z"
       id="path9-5"
       style="fill:#3b7bbc" /><path
       d="m 232.05,414.1 c -2.55,-1.25 -3.7,-3.15 -3.95,-6.35 l -0.25,-2.8 14.4,-14.25 c 8.1,-8 14.9,-14.35 15.6,-14.5 2,-0.5 5.45,0.1 7.05,1.25 1.95,1.35 3.3,4.7 2.85,7 -0.3,1.5 -2.6,4 -14.15,15.4 -7.65,7.5 -14.55,14 -15.45,14.4 -2.05,1 -4,0.95 -6.1,-0.15 z"
       id="path11-1"
       style="fill:#3b7bbc" /><path
       d="m 337.25,354.45 c -3.75,-2.2 -5.35,-5.75 -3.95,-8.75 1.2,-2.45 21.4,-22.1 24,-23.25 1.95,-0.9 2.25,-0.9 4.25,-0.2 2.75,1 4.3,2.45 4.95,4.65 0.95,3.55 0.55,4.15 -11.5,16.3 l -11.35,11.45 -2.7,0.2 c -1.5,0.1 -3.15,-0.1 -3.7,-0.4 z"
       id="path17-7"
       style="fill:#3b7bbc" /><path
       d="M 346.9,402.1 334,389.25 v -2.2 c 0,-2.8 1.65,-5.05 4.75,-6.55 4.25,-2.05 4.5,-1.9 17.65,11.15 6.45,6.4 12,12.2 12.4,12.95 2.4,4.6 -1.35,10.4 -6.75,10.4 h -2.25 z"
       id="path26-1"
       style="fill:#ffd700;fill-opacity:1" /><path
       d="m 260.5,347.55 c -0.95,-0.55 -7.2,-6.45 -13.85,-13.15 -10.15,-10.2 -12.1,-12.45 -12.4,-14 -0.95,-5.15 5.9,-10.3 10.2,-7.6 0.8,0.55 6.85,6.25 13.45,12.75 13.65,13.45 14.1,14.05 12.15,18.05 -2,4.2 -6.1,5.85 -9.55,3.95 z"
       id="path27-6"
       style="fill:#ffd700;fill-opacity:1" /><path
       d="m 318.15,337.1 c -2.2,-2 -3,-4.35 -2.4,-7 0.45,-2.15 22.3,-23.7 24.85,-24.55 5.2,-1.7 10.05,3.25 8.65,8.8 -0.35,1.55 -21.05,22.75 -23.35,23.95 -0.75,0.4 -2.35,0.7 -3.55,0.7 -1.85,0 -2.5,-0.3 -4.2,-1.9 z"
       id="path28"
       style="fill:#ffd700;fill-opacity:1" /><circle
       style="fill:#ffd700;fill-opacity:1;stroke-width:1.59225"
       id="path1"
       cx="868.14136"
       cy="388.12839"
       r="8.8664083" /></g></g></svg>
