<?xml version="1.0" encoding="UTF-8" standalone="no"?>
<!-- Created with Inkscape (http://www.inkscape.org/) -->

<svg
   width="66mm"
   height="40mm"
   viewBox="0 0 66 40"
   version="1.1"
   id="svg1"
   inkscape:version="1.4.2 (ebf0e94, 2025-05-08)"
   sodipodi:docname="logo.svg"
   xmlns:inkscape="http://www.inkscape.org/namespaces/inkscape"
   xmlns:sodipodi="http://sodipodi.sourceforge.net/DTD/sodipodi-0.dtd"
   xmlns="http://www.w3.org/2000/svg"
   xmlns:svg="http://www.w3.org/2000/svg">
  <sodipodi:namedview
     id="namedview1"
     pagecolor="#ffffff"
     bordercolor="#000000"
     borderopacity="0.25"
     inkscape:showpageshadow="2"
     inkscape:pageopacity="0.0"
     inkscape:pagecheckerboard="0"
     inkscape:deskcolor="#d1d1d1"
     inkscape:document-units="mm"
     inkscape:zoom="8"
     inkscape:cx="136.5"
     inkscape:cy="84.1875"
     inkscape:window-width="3840"
     inkscape:window-height="2126"
     inkscape:window-x="-11"
     inkscape:window-y="-11"
     inkscape:window-maximized="1"
     inkscape:current-layer="layer1" />
  <defs
     id="defs1" />
  <g
     inkscape:label="Layer 1"
     inkscape:groupmode="layer"
     id="layer1">
    <path
       d="m 30.454233,26.43304 c -0.531219,-0.0704 -0.608022,-0.179199 -0.608022,-0.864034 0,-0.716827 0.02561,-0.736027 0.908834,-0.716827 0.672025,0.01285 0.684825,0.01285 0.870433,-0.166415 0.198405,-0.192002 0.492819,-0.780828 0.56322,-1.12644 0.03839,-0.198405 0.03839,-0.198405 -0.217607,-0.198405 -0.204807,0 -0.300812,-0.04479 -0.467218,-0.204806 -0.27521,-0.275212 -0.416016,-0.608024 -0.883234,-2.09928 -0.217607,-0.684825 -0.556821,-1.753667 -0.755228,-2.368089 -0.384015,-1.196846 -0.537621,-1.82407 -0.486418,-1.958474 0.08321,-0.224009 0.364813,-0.307212 1.011237,-0.307212 0.358415,0.0064 0.704027,0.03839 0.78083,0.07681 0.147208,0.08321 0.24961,0.352013 0.467218,1.228847 0.217607,0.864033 1.100841,3.929747 1.152043,3.98735 0.02561,0.02561 0.08961,-0.0704 0.147209,-0.224009 0.128001,-0.332813 0.627222,-2.16328 1.004837,-3.699339 0.15361,-0.614424 0.320012,-1.164843 0.364812,-1.222446 0.115198,-0.134403 1.312052,-0.230409 1.587261,-0.121599 0.364813,0.140806 0.371213,0.268812 0.03839,1.408054 -0.140806,0.473617 -0.454416,1.555259 -0.704025,2.40009 -0.646424,2.208083 -1.292849,4.140956 -1.593661,4.76818 -0.281609,0.588822 -0.646424,1.017638 -1.030437,1.216044 -0.454418,0.230409 -1.273649,0.300812 -2.150482,0.192002 z"
       id="path10-5"
       style="fill:#3b7bbc;stroke-width:0.128005"
       sodipodi:nodetypes="cscccscccccccccccccccccc" />
    <path
       d="M 5.9203172,23.62309 C 5.1778895,23.463078 4.4162594,22.938263 4.1090495,22.362241 3.7506348,21.696617 3.6418314,21.184598 3.6418314,20.070955 c 0,-1.465655 0.230409,-2.201682 0.8960337,-2.880107 0.6848249,-0.691227 1.8624704,-0.992039 3.1809196,-0.800031 0.6720248,0.09601 1.0944403,0.28801 1.529658,0.691225 0.6208221,0.576022 0.8640313,1.190446 0.9280343,2.380889 0.04479,0.787231 -0.03199,1.196846 -0.2496094,1.273649 -0.076805,0.02561 -1.0944403,0.03839 -2.2592856,0.01927 -1.4976556,-0.01285 -2.13768,0 -2.1696803,0.04479 -0.070403,0.115197 0.147208,0.748828 0.3264122,0.966437 0.2560094,0.30081 0.5056186,0.396815 1.1136405,0.428815 0.4032153,0.02561 0.7936304,-0.01284 1.523258,-0.134403 1.2736487,-0.217607 1.2416462,-0.230407 1.2160459,0.588823 -0.019269,0.716826 -0.00642,0.697625 -0.7936304,0.883232 -0.5184187,0.115197 -2.5344951,0.179198 -2.9633107,0.08961 z m 1.3568517,-4.224159 1.1236685,-0.01036 -0.00995,-0.380097 c -0.070403,-0.78723 -0.544019,-1.164843 -1.452855,-1.164843 -0.3584126,0 -0.544019,0.03199 -0.7360276,0.128001 -0.4544159,0.236809 -0.6170015,0.485178 -0.6976251,1.05604 2.445e-4,0.198633 -0.011603,0.296428 0.02277,0.344285 0.034373,0.04772 0.1149072,0.04579 0.2997201,0.04469 0.1574224,0.0039 0.7522588,-0.0075 1.4503729,-0.01782 z"
       id="path12-7"
       style="fill:#3b7bbc;stroke-width:0.128005"
       sodipodi:nodetypes="ccscccccccccccccccccsccsccc" />
    <path
       d="m 20.112794,23.584687 c -0.608024,-0.134403 -1.107243,-0.403215 -1.465656,-0.78723 -0.563221,-0.601622 -0.77443,-1.35045 -0.77443,-2.790504 0,-0.697626 0.03201,-1.081641 0.108816,-1.401653 0.30081,-1.190445 1.06244,-1.926473 2.252884,-2.182482 0.83203,-0.172796 1.900872,-0.07681 2.566497,0.230409 0.409616,0.192002 0.985637,0.768028 1.196844,1.209645 0.326412,0.665625 0.454418,1.702465 0.294412,2.425692 -0.1216,0.563222 -0.01285,0.544019 -2.425692,0.505619 -1.171243,-0.01927 -2.13128,-0.01285 -2.15048,0.01927 -0.01927,0.03199 0.01927,0.230409 0.07681,0.441616 0.262409,0.934436 1.06244,1.145645 3.072116,0.800031 0.902434,-0.160013 0.947234,-0.160013 1.06244,-0.0512 0.108795,0.102393 0.121599,0.1856 0.102414,0.672025 -0.0064,0.307212 -0.0512,0.588822 -0.08321,0.627224 -0.294411,0.28801 -2.93771,0.486419 -3.833744,0.28161 z m 2.457692,-4.390565 c 0,-0.29441 -0.1216,-0.691225 -0.27521,-0.908834 -0.275211,-0.384015 -1.024039,-0.563221 -1.619261,-0.390415 -0.582422,0.166414 -0.812831,0.480018 -0.953636,1.267248 l -0.0448,0.23681 h 1.446455 1.446455 z"
       id="path13-1"
       style="fill:#3b7bbc;stroke-width:0.128005" />
    <path
       d="m 13.137638,23.578287 c -0.467218,-0.064 -0.608024,-0.256009 -0.921636,-1.254446 -0.640023,-2.016077 -1.574459,-5.382603 -1.536056,-5.510608 0.09601,-0.320012 0.198404,-0.358413 0.896033,-0.358413 0.729628,0 0.947235,0.064 1.043238,0.31361 0.0576,0.147208 0.307212,1.06244 1.196846,4.384166 0.121599,0.454417 0.236809,0.844833 0.256009,0.864033 0.09601,0.09601 0.166415,-0.172796 0.947236,-3.379328 0.26241,-1.07524 0.518419,-1.984074 0.569622,-2.041677 0.108795,-0.108795 1.241646,-0.192002 1.548858,-0.115197 0.26241,0.064 0.307212,0.294411 0.166415,0.857631 -0.518419,2.112079 -1.484856,5.491408 -1.689664,5.894623 -0.134404,0.262409 -0.441616,0.345612 -1.388853,0.364813 -0.473618,0.0064 -0.966436,0 -1.08804,-0.01927 z"
       id="path15-5"
       style="fill:#3b7bbc;stroke-width:0.128005" />
    <path
       d="m 25.202957,23.578287 c -0.0704,-0.01927 -0.179198,-0.07681 -0.236809,-0.134403 -0.108795,-0.08961 -0.115197,-0.320013 -0.115197,-3.078515 0,-2.233685 0.01927,-3.020913 0.08321,-3.142519 0.108795,-0.217609 0.79363,-0.550421 1.401652,-0.672025 0.300812,-0.0576 0.838433,-0.09601 1.376052,-0.09601 1.203246,0 1.190446,-0.0064 1.158446,0.864031 -0.01285,0.416016 -0.0512,0.691227 -0.108796,0.755228 -0.0704,0.08961 -0.211206,0.102414 -0.864031,0.08961 -0.889633,-0.01285 -1.081642,0.0512 -1.152043,0.409616 -0.01927,0.108795 -0.03839,1.216044 -0.03839,2.457692 0,2.732902 0.0576,2.553695 -0.812831,2.572895 -0.307212,0.0064 -0.620824,-0.0064 -0.691225,-0.02561 z"
       id="path16-2"
       style="fill:#3b7bbc;stroke-width:0.128005" />
    <path
       d="M 39.326471,23.62949 C 38.71845,23.514293 38.353635,23.232675 38.104025,22.695054 37.96322,22.387842 37.956817,22.298238 37.924827,20.262962 l -0.03199,-2.11208 -0.556821,-0.03199 c -0.300812,-0.01927 -0.563221,-0.04479 -0.582422,-0.064 -0.01284,-0.01927 -0.04479,-0.320012 -0.0704,-0.678424 -0.0512,-0.844831 -0.03199,-0.876834 0.640024,-0.896034 l 0.505619,-0.01285 0.03199,-0.870433 c 0.03839,-1.126443 0.0064,-1.094441 1.017639,-1.094441 0.544021,0 0.780828,0.02561 0.857631,0.08961 0.08961,0.0704 0.108795,0.224009 0.108795,0.928034 0,0.460818 0.02561,0.870433 0.0512,0.915234 0.03201,0.0576 0.326412,0.08321 0.940836,0.09601 l 0.896034,0.01927 v 0.736028 0.736027 l -0.940837,0.01927 -0.947234,0.01927 v 1.612862 c 0,0.908833 0.03199,1.715264 0.064,1.84967 0.102393,0.358412 0.326412,0.499218 0.793628,0.499218 0.211209,-0.0064 0.512021,-0.02561 0.652825,-0.0576 0.435217,-0.08321 0.473618,-0.03201 0.473618,0.691227 0,0.473616 -0.02561,0.652824 -0.08961,0.710425 -0.26241,0.211209 -1.766468,0.377615 -2.412892,0.262411 z"
       id="path18-6"
       style="fill:#000000;stroke-width:0.128005;fill-opacity:1" />
    <path
       d="m 44.602309,23.597487 c -1.145643,-0.262409 -1.894471,-1.017637 -2.18248,-2.195282 -0.134404,-0.569622 -0.134404,-1.984074 0,-2.630499 0.121599,-0.563221 0.428815,-1.145643 0.793628,-1.529658 0.326412,-0.332812 1.036839,-0.691225 1.587261,-0.793628 0.576021,-0.108795 1.88807,-0.03839 2.400089,0.128002 1.465655,0.467218 2.208083,1.996876 1.996876,4.108953 -0.121599,1.216046 -0.441618,1.888073 -1.164843,2.432092 -0.524821,0.390415 -1.017639,0.518421 -2.11208,0.544021 -0.627224,0.01285 -1.056039,-0.0064 -1.318451,-0.064 z m 1.84967,-1.664061 c 0.505619,-0.211209 0.697627,-0.640025 0.736028,-1.638462 0.0512,-1.267248 -0.179198,-1.86247 -0.793631,-2.073679 -0.608021,-0.204806 -1.305649,-0.09601 -1.664061,0.26241 -0.390415,0.390415 -0.569622,1.452855 -0.384015,2.316888 0.192002,0.896034 0.563221,1.216046 1.433654,1.222446 0.25601,0 0.556822,-0.03839 0.672025,-0.08961 z"
       id="path19-1"
       style="fill:#000000;stroke-width:0.128005;fill-opacity:1" />
    <path
       d="m 51.931232,23.565487 c -0.627225,-0.15361 -1.01124,-0.364815 -1.382452,-0.755228 -0.588822,-0.620824 -0.825631,-1.401654 -0.825631,-2.726503 0,-1.977674 0.576021,-3.014514 1.958473,-3.507332 0.524819,-0.185601 1.977674,-0.24321 2.592098,-0.09601 1.196844,0.27521 1.868869,0.940834 2.214483,2.15688 0.160013,0.569622 0.160013,2.278486 0,2.86731 -0.236809,0.883231 -0.736027,1.523256 -1.420854,1.836868 -0.748828,0.345612 -2.227283,0.448018 -3.136117,0.224009 z M 53.7681,21.959026 c 0.582421,-0.166414 0.844833,-0.755228 0.838433,-1.888071 0,-1.440054 -0.384015,-1.952073 -1.440055,-1.952073 -0.940837,0 -1.33125,0.422415 -1.459255,1.555258 -0.128002,1.132843 0.140806,1.958474 0.729627,2.227283 0.294412,0.134404 0.947237,0.160013 1.33125,0.0576 z"
       id="path20-4"
       style="fill:#000000;stroke-width:0.128005;fill-opacity:1" />
    <path
       d="m 58.593357,23.616688 c -0.499218,-0.0512 -0.787228,-0.179198 -1.036837,-0.460816 -0.435218,-0.492819 -0.428818,-0.448018 -0.454418,-5.100993 -0.0064,-2.304086 -0.0064,-4.24976 0.01285,-4.326563 0.0512,-0.204806 0.313612,-0.281609 0.992037,-0.281609 0.537621,0 0.652825,0.01927 0.800031,0.134403 l 0.166414,0.128002 v 3.955348 3.955349 l 0.140806,0.179199 c 0.134404,0.172816 0.147208,0.179198 0.672025,0.140805 0.659225,-0.03839 0.672025,-0.02561 0.646424,0.832031 l -0.01927,0.627224 -0.25601,0.08321 c -0.345614,0.115197 -1.190445,0.179198 -1.664063,0.134403 z"
       id="path21-2"
       style="fill:#000000;stroke-width:0.128005;fill-opacity:1" />
  </g>
</svg>
