<?xml version="1.0" encoding="UTF-8" standalone="no"?>
<!-- Created with Inkscape (http://www.inkscape.org/) -->

<svg
   width="62.819492mm"
   height="14.93012mm"
   viewBox="0 0 62.819492 14.930117"
   version="1.1"
   id="svg1"
   inkscape:version="1.4.2 (ebf0e94, 2025-05-08)"
   sodipodi:docname="logo(icon).svg"
   inkscape:export-filename="..\logo(icon).png"
   inkscape:export-xdpi="96"
   inkscape:export-ydpi="96"
   xmlns:inkscape="http://www.inkscape.org/namespaces/inkscape"
   xmlns:sodipodi="http://sodipodi.sourceforge.net/DTD/sodipodi-0.dtd"
   xmlns="http://www.w3.org/2000/svg"
   xmlns:svg="http://www.w3.org/2000/svg">
  <sodipodi:namedview
     id="namedview1"
     pagecolor="#ffffff"
     bordercolor="#000000"
     borderopacity="0.25"
     inkscape:showpageshadow="2"
     inkscape:pageopacity="0.0"
     inkscape:pagecheckerboard="0"
     inkscape:deskcolor="#d1d1d1"
     inkscape:document-units="mm"
     inkscape:zoom="2.8284271"
     inkscape:cx="126.04178"
     inkscape:cy="-1.9445437"
     inkscape:window-width="3840"
     inkscape:window-height="2126"
     inkscape:window-x="-11"
     inkscape:window-y="-11"
     inkscape:window-maximized="1"
     inkscape:current-layer="layer1" />
  <defs
     id="defs1" />
  <g
     inkscape:label="Layer 1"
     inkscape:groupmode="layer"
     id="layer1"
     transform="translate(-1.5902537,-12.347852)">
    <g
       id="g1">
      <path
         d="m 39.640133,25.379088 c -0.409167,-0.05423 -0.468323,-0.138026 -0.468323,-0.665514 0,-0.552129 0.01972,-0.566918 0.70002,-0.552129 0.517621,0.0099 0.52748,0.0099 0.670443,-0.128179 0.152819,-0.147888 0.379589,-0.601426 0.433814,-0.86763 0.02957,-0.15282 0.02957,-0.15282 -0.167609,-0.15282 -0.15775,0 -0.231698,-0.0345 -0.35987,-0.15775 -0.211978,-0.211979 -0.320432,-0.468325 -0.680303,-1.61695 -0.167609,-0.52748 -0.428886,-1.350745 -0.581707,-1.823998 -0.295784,-0.921859 -0.414097,-1.404972 -0.374659,-1.508495 0.06409,-0.172541 0.280994,-0.236627 0.778896,-0.236627 0.276066,0.0049 0.54227,0.02957 0.601427,0.05916 0.113386,0.06409 0.192259,0.271134 0.35987,0.946507 0.16761,0.665513 0.847912,3.02685 0.887351,3.071218 0.01972,0.01973 0.06902,-0.05423 0.113385,-0.172541 0.09859,-0.256345 0.483112,-1.666246 0.773966,-2.84938 0.118317,-0.473254 0.246487,-0.897209 0.280994,-0.941577 0.08873,-0.103523 1.010595,-0.17747 1.222572,-0.09366 0.280994,0.108455 0.285923,0.20705 0.02957,1.084541 -0.108454,0.364798 -0.350009,1.197923 -0.542268,1.848646 -0.497902,1.700754 -0.995805,3.189532 -1.227502,3.672645 -0.216907,0.453534 -0.497902,0.783825 -0.793685,0.936646 -0.350011,0.17747 -0.981016,0.231698 -1.656388,0.147888 z"
         id="path10-5"
         style="fill:#3b7bbc;stroke-width:0.0985945" />
      <path
         d="m 20.345193,23.160712 c -0.571848,-0.123248 -1.158486,-0.527481 -1.395112,-0.971156 -0.276065,-0.512691 -0.35987,-0.907069 -0.35987,-1.764841 0,-1.128907 0.17747,-1.695825 0.690161,-2.218376 0.52748,-0.532411 1.43455,-0.764108 2.450073,-0.616215 0.517621,0.07395 0.842982,0.221836 1.178205,0.532409 0.478182,0.443675 0.665511,0.916929 0.714809,1.833857 0.0345,0.606357 -0.02464,0.921859 -0.192259,0.981016 -0.05916,0.01973 -0.842982,0.02957 -1.740193,0.01484 -1.153555,-0.0099 -1.646528,0 -1.671176,0.0345 -0.05423,0.08873 0.113386,0.576777 0.251416,0.744388 0.197189,0.231696 0.389448,0.305643 0.857771,0.330291 0.310573,0.01973 0.611286,-0.0099 1.173275,-0.103523 0.981016,-0.167609 0.956366,-0.177469 0.936648,0.453536 -0.01484,0.552128 -0.0049,0.537339 -0.611287,0.680301 -0.399307,0.08873 -1.95217,0.138025 -2.282461,0.06902 z m 1.045102,-3.253618 h 0.88735 l -0.02957,-0.300713 c -0.05423,-0.606357 -0.419026,-0.89721 -1.119048,-0.89721 -0.276064,0 -0.419025,0.02464 -0.566918,0.09859 -0.35001,0.1824 -0.473253,0.36973 -0.537339,0.813405 -0.0493,0.315502 -0.01484,0.35494 0.256345,0.315502 0.123248,-0.01484 0.621146,-0.02957 1.109189,-0.02957 z"
         id="path12-7"
         style="fill:#3b7bbc;stroke-width:0.0985945" />
      <path
         d="m 31.264532,23.131133 c -0.468325,-0.103523 -0.852843,-0.310573 -1.128907,-0.606357 -0.433816,-0.463393 -0.596497,-1.04017 -0.596497,-2.149359 0,-0.537339 0.02466,-0.833123 0.08381,-1.079609 0.231696,-0.916929 0.818334,-1.483848 1.735262,-1.681036 0.640864,-0.133095 1.464129,-0.05916 1.97682,0.17747 0.315502,0.147888 0.759177,0.591566 0.921857,0.931718 0.251416,0.512691 0.350012,1.311307 0.226768,1.868366 -0.09366,0.433816 -0.0099,0.419025 -1.868365,0.389448 -0.902139,-0.01484 -1.641598,-0.0099 -1.656387,0.01484 -0.01484,0.02464 0.01484,0.177471 0.05916,0.340151 0.202119,0.71974 0.818334,0.882422 2.366268,0.616215 0.695091,-0.123248 0.729598,-0.123248 0.818334,-0.03943 0.0838,0.07887 0.09366,0.142956 0.07888,0.51762 -0.0049,0.236627 -0.03943,0.453535 -0.06409,0.483114 -0.226768,0.221837 -2.262743,0.374659 -2.952905,0.216907 z m 1.893014,-3.381791 c 0,-0.226766 -0.09366,-0.532409 -0.211978,-0.70002 -0.211979,-0.295784 -0.788756,-0.433816 -1.24722,-0.300714 -0.448605,0.128179 -0.626075,0.369729 -0.73453,0.976086 l -0.0345,0.1824 h 1.114118 1.114118 z"
         id="path13-1"
         style="fill:#3b7bbc;stroke-width:0.0985945" />
      <path
         d="m 25.861554,23.126204 c -0.35987,-0.0493 -0.468324,-0.197189 -0.709881,-0.966226 -0.492971,-1.552863 -1.212712,-4.145898 -1.183133,-4.244493 0.07395,-0.246486 0.15282,-0.276064 0.690162,-0.276064 0.561989,0 0.729598,0.0493 0.803544,0.241555 0.04436,0.113386 0.236627,0.818334 0.921859,3.376862 0.09366,0.350011 0.1824,0.650724 0.197188,0.665513 0.07395,0.07395 0.128179,-0.133094 0.7296,-2.602895 0.202118,-0.828194 0.399307,-1.528214 0.438746,-1.572582 0.0838,-0.0838 0.956366,-0.147888 1.192993,-0.08873 0.202118,0.0493 0.236627,0.226768 0.128179,0.660583 -0.399307,1.626809 -1.143696,4.229704 -1.301448,4.540277 -0.103523,0.202118 -0.34015,0.266204 -1.06975,0.280993 -0.3648,0.0049 -0.744388,0 -0.838052,-0.01484 z"
         id="path15-5"
         style="fill:#3b7bbc;stroke-width:0.0985945" />
      <path
         d="m 35.647057,23.126204 c -0.05423,-0.01484 -0.138026,-0.05916 -0.1824,-0.103524 -0.0838,-0.06902 -0.08873,-0.246486 -0.08873,-2.371196 0,-1.720474 0.01484,-2.326829 0.06409,-2.420495 0.0838,-0.167611 0.611286,-0.423957 1.079609,-0.517621 0.231698,-0.04436 0.645795,-0.07395 1.059891,-0.07395 0.926789,0 0.91693,-0.0049 0.892282,0.665512 -0.0099,0.320432 -0.03943,0.532411 -0.0838,0.581707 -0.05423,0.06902 -0.16268,0.07888 -0.665512,0.06902 -0.685231,-0.0099 -0.833124,0.03943 -0.88735,0.315502 -0.01484,0.0838 -0.02957,0.936646 -0.02957,1.893014 0,2.104991 0.04436,1.96696 -0.626075,1.981748 -0.236627,0.0049 -0.478184,-0.0049 -0.532409,-0.01972 z"
         id="path16-2"
         style="fill:#3b7bbc;stroke-width:0.0985945" />
    </g>
    <g
       id="g2">
      <g
         id="g5"
         style="fill:#3a4d52;fill-opacity:1">
        <path
           d="m 46.561465,23.165642 c -0.468323,-0.08873 -0.749318,-0.305643 -0.941577,-0.719741 -0.108455,-0.236627 -0.113386,-0.305643 -0.138026,-1.873295 l -0.02464,-1.626809 -0.428886,-0.02464 c -0.231698,-0.01484 -0.433816,-0.0345 -0.448605,-0.0493 -0.0099,-0.01484 -0.0345,-0.246487 -0.05423,-0.522551 -0.03943,-0.650723 -0.02464,-0.675372 0.492973,-0.690161 l 0.389448,-0.0099 0.02464,-0.670443 c 0.02957,-0.867632 0.0049,-0.842982 0.783827,-0.842982 0.419027,0 0.601425,0.01972 0.660582,0.06902 0.06902,0.05423 0.0838,0.172541 0.0838,0.71481 0,0.35494 0.01973,0.670443 0.03943,0.70495 0.02466,0.04436 0.251416,0.06409 0.72467,0.07395 l 0.690161,0.01484 v 0.566919 0.566918 l -0.72467,0.01484 -0.729598,0.01484 v 1.242291 c 0,0.70002 0.02464,1.321166 0.0493,1.42469 0.07887,0.276064 0.251416,0.384519 0.611285,0.384519 0.162681,-0.0049 0.394379,-0.01972 0.502831,-0.04436 0.335223,-0.06409 0.3648,-0.02466 0.3648,0.532411 0,0.364798 -0.01972,0.502832 -0.06902,0.547198 -0.202119,0.162682 -1.360605,0.290854 -1.858507,0.20212 z"
           id="path18-6"
           style="fill:#3a4d52;fill-opacity:1;stroke-width:0.0985945" />
        <path
           d="m 50.776379,23.140992 c -0.882421,-0.202118 -1.459198,-0.783825 -1.681035,-1.690895 -0.103523,-0.438746 -0.103523,-1.528214 0,-2.026116 0.09366,-0.433816 0.330291,-0.882421 0.611285,-1.178205 0.251416,-0.256345 0.798616,-0.532409 1.222572,-0.611284 0.443675,-0.0838 1.454269,-0.02957 1.848646,0.09859 1.128907,0.35987 1.700755,1.538074 1.538075,3.164882 -0.09366,0.936647 -0.340152,1.45427 -0.897209,1.873295 -0.404239,0.300714 -0.783827,0.399309 -1.62681,0.419027 -0.483113,0.0099 -0.813404,-0.0049 -1.015524,-0.0493 z m 1.424691,-1.281727 c 0.389448,-0.162682 0.53734,-0.492973 0.566918,-1.26201 0.03943,-0.976086 -0.138026,-1.43455 -0.611286,-1.597231 -0.468323,-0.15775 -1.005664,-0.07395 -1.281728,0.202118 -0.300713,0.300714 -0.438745,1.119048 -0.295784,1.784561 0.147888,0.690162 0.433816,0.936648 1.104259,0.941578 0.197189,0 0.428886,-0.02957 0.517621,-0.06902 z"
           id="path19-1"
           style="fill:#3a4d52;fill-opacity:1;stroke-width:0.0985945" />
        <path
           d="m 56.696979,23.116344 c -0.483114,-0.118316 -0.778898,-0.280995 -1.064821,-0.581707 -0.453534,-0.478184 -0.635934,-1.079611 -0.635934,-2.100063 0,-1.523284 0.443675,-2.3219 1.508496,-2.701489 0.404236,-0.142957 1.523284,-0.187329 1.996538,-0.07395 0.921858,0.211978 1.439478,0.724669 1.705685,1.661316 0.123248,0.438746 0.123248,1.754982 0,2.208518 -0.1824,0.680301 -0.566919,1.173273 -1.0944,1.41483 -0.576777,0.266205 -1.715544,0.345082 -2.415564,0.172541 z m 1.41483,-1.237361 c 0.448605,-0.128179 0.650724,-0.581707 0.645795,-1.454268 0,-1.109189 -0.295784,-1.503566 -1.109189,-1.503566 -0.72467,0 -1.025382,0.325361 -1.123977,1.197923 -0.09859,0.872561 0.108454,1.508495 0.561989,1.715543 0.226768,0.103523 0.7296,0.123248 1.025382,0.04436 z"
           id="path20-4"
           style="fill:#3a4d52;fill-opacity:1;stroke-width:0.0985945" />
        <path
           d="m 62.316864,23.155781 c -0.384519,-0.03943 -0.606355,-0.138025 -0.798615,-0.354939 -0.335222,-0.379589 -0.330292,-0.345081 -0.350011,-3.928991 -0.0049,-1.7747 -0.0049,-3.273336 0.0099,-3.332493 0.03943,-0.157751 0.241556,-0.216907 0.764107,-0.216907 0.414097,0 0.502831,0.01484 0.616215,0.103523 l 0.12818,0.09859 v 3.046568 3.046571 l 0.108454,0.138025 c 0.103523,0.133111 0.113386,0.138026 0.517621,0.108455 0.507761,-0.02957 0.51762,-0.01972 0.497902,0.640864 l -0.01484,0.483113 -0.197188,0.06409 c -0.266207,0.08873 -0.91693,0.138025 -1.28173,0.103523 z"
           id="path21-2"
           style="fill:#3a4d52;fill-opacity:1;stroke-width:0.0985945" />
      </g>
    </g>
    <path
       d="M 4.2841507,26.72983 C 3.9439997,26.56222 3.796108,26.01995 4.0080861,25.734026 c 0.1380323,-0.18733 2.4599323,-2.410635 2.6965591,-2.583175 0.5324102,-0.384519 1.2620093,0.07395 1.1190473,0.70002 -0.029578,0.142962 -0.2957834,0.428886 -1.3803227,1.503566 -0.7394586,0.734529 -1.3901822,1.355674 -1.4493389,1.390182 -0.1528214,0.08381 -0.5225507,0.07395 -0.7098802,-0.01479 z"
       id="path8-4"
       style="fill:#3b7bbc;stroke-width:0.0985945" />
    <path
       d="m 13.537243,26.488274 c -0.108454,-0.04437 -0.833124,-0.744389 -1.947241,-1.868366 L 9.815301,22.825489 9.3716259,22.80084 C 8.814567,22.766332 8.4103297,22.63323 7.9370762,22.312798 7.3455093,21.91842 6.9807097,21.430377 6.7736613,20.769794 6.4532293,19.739482 6.8673261,18.51198 7.7398872,17.910554 L 8.0208815,17.718295 6.2757592,15.968243 C 5.314463,15.002017 4.5010585,14.163964 4.4714802,14.104807 4.2545723,13.675921 4.65388,13.202668 5.2405171,13.202668 l 0.2366268,-0.0049 2.0409057,2.060625 c 2.6719104,2.696559 3.2141804,3.258547 3.6381364,3.761379 0.192259,0.231697 0.453535,0.483113 0.581707,0.561988 0.290854,0.18733 0.36973,0.340151 0.36973,0.734529 0,0.586637 -0.207049,1.050032 -0.695091,1.567653 l -0.295784,0.315502 1.621879,1.60216 c 0.89228,0.882421 1.661317,1.676106 1.710615,1.769771 0.142962,0.285924 0.03451,0.685232 -0.236627,0.862702 -0.172541,0.113383 -0.478183,0.138032 -0.675372,0.05423 z M 9.9681225,21.19868 c 0.2316965,-0.118313 0.4929725,-0.399308 0.5915665,-0.631005 0.103525,-0.246486 0.08873,-0.788756 -0.02958,-1.030312 -0.463394,-0.956367 -1.7451223,-1.030312 -2.2380947,-0.123243 -0.3598698,0.660583 -0.1084539,1.459198 0.5767777,1.799349 0.2169079,0.103524 0.3056429,0.123243 0.5767777,0.108454 0.197189,-0.01479 0.3993077,-0.05916 0.5225508,-0.123243 z"
       id="path9-5"
       style="fill:#3b7bbc;stroke-width:0.0985945" />
    <path
       d="M 2.5981851,24.94527 C 2.3467692,24.822027 2.2333855,24.634698 2.2087369,24.319195 l -0.024649,-0.276064 1.4197605,-1.404972 c 0.7986153,-0.788756 1.4690577,-1.41483 1.5380739,-1.42962 0.1971889,-0.0493 0.5373399,0.0099 0.6950911,0.123243 0.1922592,0.133103 0.3253617,0.463395 0.2809942,0.690162 -0.029578,0.147892 -0.2563456,0.394378 -1.3951119,1.518355 -0.7542477,0.739458 -1.4345497,1.380323 -1.5232847,1.41976 -0.2021187,0.09859 -0.3943779,0.09366 -0.6014263,-0.01479 z"
       id="path11-1"
       style="fill:#3b7bbc;stroke-width:0.0985945" />
    <path
       d="m 12.970324,19.064109 c -0.369729,-0.216907 -0.52748,-0.566918 -0.389448,-0.862701 0.118314,-0.241557 2.109922,-2.178938 2.366268,-2.292322 0.192259,-0.08873 0.221837,-0.08873 0.419026,-0.01972 0.271135,0.09859 0.423957,0.241557 0.488043,0.458465 0.09366,0.35001 0.05423,0.409167 -1.133837,1.60709 l -1.119047,1.128906 -0.266205,0.01972 c -0.147892,0.0099 -0.310573,-0.0099 -0.3648,-0.03944 z"
       id="path17-7"
       style="fill:#3b7bbc;stroke-width:0.0985945" />
    <path
       d="m 13.921761,23.762136 -1.271869,-1.266939 v -0.216908 c 0,-0.276064 0.162681,-0.497902 0.468324,-0.645793 0.419027,-0.202119 0.443675,-0.18733 1.740193,1.099328 0.635934,0.631005 1.183133,1.202853 1.222571,1.276799 0.236627,0.453534 -0.133102,1.025382 -0.665513,1.025382 H 15.19363 Z"
       id="path26-1"
       style="fill:#ffd700;fill-opacity:1;stroke-width:0.0985945" />
    <path
       d="M 5.403198,18.383808 C 5.3095333,18.329581 4.6933178,17.747873 4.0376645,17.08729 3.0369305,16.081626 2.8446713,15.859789 2.8150929,15.706967 c -0.093665,-0.507761 0.5817075,-1.015523 1.0056637,-0.749318 0.078876,0.05423 0.6753722,0.616216 1.3260958,1.25708 1.3458146,1.326096 1.3901822,1.385252 1.1979229,1.77963 -0.1971889,0.414097 -0.6014263,0.576778 -0.9415773,0.389449 z"
       id="path27-6"
       style="fill:#ffd700;fill-opacity:1;stroke-width:0.0985945" />
    <path
       d="m 11.08717,17.353495 c -0.216908,-0.197189 -0.295784,-0.428886 -0.236627,-0.690161 0.04437,-0.211978 2.198657,-2.336689 2.450073,-2.420495 0.512691,-0.16761 0.990874,0.320432 0.852842,0.867632 -0.03451,0.152821 -2.075414,2.243024 -2.302181,2.361338 -0.07395,0.03944 -0.231697,0.06902 -0.35001,0.06902 -0.1824,0 -0.246487,-0.02958 -0.414097,-0.18733 z"
       id="path28"
       style="fill:#ffd700;fill-opacity:1;stroke-width:0.0985945" />
  </g>
</svg>
