<?xml version="1.0" encoding="UTF-8" standalone="no"?>
<!-- Created with Inkscape (http://www.inkscape.org/) -->

<svg
   width="258.1004mm"
   height="271.9769mm"
   viewBox="0 0 258.1004 271.97689"
   version="1.1"
   id="svg1"
   xml:space="preserve"
   inkscape:export-filename="UPI ID qr code.svg"
   inkscape:export-xdpi="96"
   inkscape:export-ydpi="96"
   inkscape:version="1.4.2 (ebf0e94, 2025-05-08)"
   sodipodi:docname="UPI ID QR code.svg"
   xmlns:inkscape="http://www.inkscape.org/namespaces/inkscape"
   xmlns:sodipodi="http://sodipodi.sourceforge.net/DTD/sodipodi-0.dtd"
   xmlns="http://www.w3.org/2000/svg"
   xmlns:svg="http://www.w3.org/2000/svg"><sodipodi:namedview
     id="namedview1"
     pagecolor="#ffffff"
     bordercolor="#000000"
     borderopacity="0.25"
     inkscape:showpageshadow="2"
     inkscape:pageopacity="0.0"
     inkscape:pagecheckerboard="0"
     inkscape:deskcolor="#d1d1d1"
     inkscape:document-units="mm"
     inkscape:zoom="0.70710678"
     inkscape:cx="401.63665"
     inkscape:cy="519.72348"
     inkscape:window-width="2180"
     inkscape:window-height="2104"
     inkscape:window-x="1647"
     inkscape:window-y="0"
     inkscape:window-maximized="0"
     inkscape:current-layer="layer1"><inkscape:page
       x="0"
       y="0"
       width="258.1004"
       height="271.97687"
       id="page1"
       margin="0"
       bleed="0" /></sodipodi:namedview><defs
     id="defs1" /><g
     inkscape:label="Layer 1"
     inkscape:groupmode="layer"
     id="layer1"
     transform="translate(0,-0.15873865)"><path
       style="fill:#000000;stroke-width:1.71797"
       d="m 54.050201,195.23807 v -15.90909 h 15.90909 15.90909 v 15.90909 15.9091 h -15.90909 -15.90909 z m 27.272726,0 V 183.87444 H 69.959291 58.595654 v 11.36363 11.36365 h 11.363637 11.363636 z m -18.181816,0 v -6.81819 h 6.81818 6.818182 v 6.81819 6.81818 h -6.818182 -6.81818 z m 27.272724,13.63636 v -2.27271 h 2.272728 2.272726 v -2.27274 -2.27273 h -2.272726 -2.272728 v -4.54545 -4.54545 h 4.545454 4.545451 v -4.54547 -4.54544 h 4.54547 4.54545 v -2.27274 -2.27272 h -2.27272 -2.27273 v -6.81818 -6.81818 h -2.27274 -2.27273 v 6.81818 6.81818 h -2.272723 -2.272728 v 4.54546 4.54544 h -2.272726 -2.272728 v -6.81818 -6.81818 h -4.545454 -4.545454 v -2.27272 -2.27272 h -4.545454 -4.545455 v 2.27272 2.27272 h -4.545453 -4.545454 v -2.27272 -2.27272 h -2.272728 -2.272729 v 2.27272 2.27272 h -2.272725 -2.272728 v -2.27272 -2.27272 h 2.272728 2.272725 v -2.27274 -2.27272 h 2.272729 2.272728 v -6.81818 -6.81818 h -2.272728 -2.272729 v 4.54545 4.54545 h -2.272725 -2.272728 v -4.54545 -4.54545 h 2.272728 2.272725 v -2.27273 -2.27272 h -2.272725 -2.272728 v -4.54546 -4.54545 h 2.272728 2.272725 v 4.54545 4.54546 h 2.272729 2.272728 v -2.27273 -2.27273 h 4.545454 4.545453 v -2.27272 -2.27273 h -2.272727 -2.272726 v -4.54545 -4.54546 h -2.272728 -2.272726 v -2.27272 -2.27273 h -2.272728 -2.272729 v -2.27274 -2.27271 h -2.272725 -2.272728 v -4.54547 -4.54544 h 4.545453 4.545457 v -2.27274 -2.27272 h 4.545454 4.545453 v -2.27272 -2.27274 h -4.545453 -4.545454 v -2.272708 -2.272736 h 4.545454 4.545453 v 2.272736 2.272708 h 2.272727 2.272728 v -2.272708 -2.272736 h 6.81818 6.818182 v -4.545448 -4.545466 h 2.272728 2.272726 v 4.545466 4.545448 h 2.272728 2.272723 v -4.545448 -4.545466 h 2.27273 2.27274 v 4.545466 4.545448 h -2.27274 -2.27273 v 4.545444 4.54546 h 2.27273 2.27274 v 2.27272 2.27274 h 2.27273 2.27272 v 2.27273 2.27271 h -4.54545 -4.54547 v 4.54547 4.54545 h 2.27273 2.27274 v -2.27274 -2.27271 h 6.81818 6.81818 v 2.27271 2.27274 h 2.27272 2.27274 v 2.27273 2.27272 h -2.27274 -2.27272 v 2.27272 2.27274 h 4.54546 4.54544 v -6.81818 -6.81818 h -2.27271 -2.27273 v -2.27273 -2.27274 h -4.54546 -4.54546 v -2.27271 -2.27273 h 2.27273 2.27273 V 99.783552 88.419902 h 2.27272 2.27274 v 2.272733 2.272733 h 2.27273 2.27271 v -4.545466 -4.545449 h 2.27274 2.27273 v 4.545449 4.545466 h 2.27271 2.27274 v -4.545466 -4.545449 h 2.27274 2.2727 v -2.272716 -2.272733 h -4.54544 -4.54545 v -2.272733 -2.272716 h -2.27273 -2.27274 v -6.818181 -6.818183 h 11.36366 11.36362 v 2.272716 2.272733 h 4.54546 4.54546 v -2.272733 -2.272716 h 2.27272 2.27272 v 2.272716 2.272733 h 2.27274 2.27272 v 20.454546 20.454534 h 2.27273 2.27273 v -4.54546 -4.545444 h 2.27272 2.27273 v 9.090904 9.0909 h -2.27273 -2.27272 v 2.27274 2.27273 h -2.27273 -2.27273 v 2.27271 2.27274 h 2.27273 2.27273 v 4.54545 4.54546 h 6.81817 6.81818 v -2.27274 -2.27272 h -4.54545 -4.54545 v -4.54545 -4.54545 h 2.27272 2.27273 v -4.54547 -4.54544 h 2.27273 2.27272 v -2.27274 -2.27272 h 2.27273 2.27273 v -2.27272 -2.27274 h -2.27273 -2.27273 v -2.272708 -2.272736 h 2.27273 2.27273 v 2.272736 2.272708 h 2.27272 2.27274 v -2.272708 -2.272736 h 4.54544 4.54546 v 6.818184 6.81818 h -2.27272 -2.27274 v 2.27273 2.27271 h 2.27274 2.27272 v 2.27274 2.27273 h -2.27272 -2.27274 v 2.27271 2.27274 h -2.27272 -2.27272 v 2.27273 2.27272 h 2.27272 2.27272 v 2.27272 2.27274 h 2.27274 2.27272 v 4.54545 4.54545 h -2.27272 -2.27274 v 2.27273 2.27273 h 2.27274 2.27272 v 2.27272 2.27273 h -4.54546 -4.54544 v 2.27272 2.27273 h 4.54544 4.54546 v 4.54545 4.54546 h -2.27272 -2.27274 v 2.27272 2.27274 h 2.27274 2.27272 v 2.27272 2.27272 h -4.54546 -4.54544 v 6.81818 6.81818 h 4.54544 4.54546 v 4.54547 4.54545 h -2.27272 -2.27274 v -2.27273 -2.27272 h -2.27272 -2.27272 v 2.27272 2.27273 h -4.54546 -4.54546 v -2.27273 -2.27272 h -6.81818 -6.81817 v 2.27272 2.27273 h 4.54545 4.54545 v 2.27274 2.27271 h 4.54545 4.54546 v 2.27273 2.27274 h 2.27272 2.27274 v 2.27271 2.27274 h -4.54546 -4.54546 v -2.27274 -2.27271 h -2.27272 -2.27273 v 2.27271 2.27274 h -6.81818 -6.81818 v -2.27274 -2.27271 h -2.27272 -2.27274 v 2.27271 2.27274 h -2.27272 -2.27272 v -2.27274 -2.27271 h 2.27272 2.27272 v -2.27274 -2.27273 h -2.27272 -2.27272 v -9.0909 -9.09091 h -2.27274 -2.27272 v 4.54544 4.54547 h -2.27272 -2.27274 v 2.27272 2.27273 h -4.54544 -4.54548 v 4.54545 4.54547 h 2.27274 2.27274 v -2.27274 -2.27273 h 2.2727 2.27274 v 2.27273 2.27274 h 2.27274 2.27272 v 2.27271 2.27274 h -15.90908 -15.9091 v -2.27274 -2.27271 h 2.27273 2.27271 v -2.27274 -2.27273 h -2.27271 -2.27273 v -2.27271 -2.27274 h -2.27274 -2.27272 v -2.27273 -2.27272 h 2.27272 2.27274 v -4.54547 -4.54544 h -4.54546 -4.54546 v 2.27273 2.27271 h -2.27272 -2.27273 v 2.27274 2.27273 h 2.27273 2.27272 v 2.27272 2.27273 h -2.27272 -2.27273 v 4.54545 4.54547 h -6.81819 -6.818181 v 2.27271 2.27274 h -2.272726 -2.272728 z m 81.818195,-4.54545 v -2.27273 h -2.27273 -2.27273 v -2.27271 -2.27274 h -2.27272 -2.27274 v 2.27274 2.27271 h 2.27274 2.27272 v 2.27273 2.27274 h 2.27273 2.27273 z m -68.18182,-6.81818 v -4.54545 h -2.27274 -2.27273 v 4.54545 4.54545 h 2.27273 2.27274 z m 31.81818,-2.27273 v -2.27272 h 2.27274 2.2727 v -2.27273 -2.27274 h 2.27274 2.27274 v 2.27274 2.27273 h 2.2727 2.27274 v -4.54547 -4.54544 h -6.81818 -6.81818 v -2.27274 -2.27272 h 2.27274 2.2727 v -2.27272 -2.27274 h 2.27274 2.27274 v 2.27274 2.27272 h 4.54544 4.54546 v -4.54546 -4.54544 h 11.36364 11.36363 v -4.54546 -4.54546 h 2.27272 2.27273 v 4.54546 4.54546 h 2.27273 2.27272 v 2.27272 2.27272 h 4.54546 4.54546 v -6.81818 -6.81818 h -2.27274 -2.27272 v -2.27272 -2.27273 h -4.54546 -4.54545 v -2.27273 -2.27272 h -6.81818 -6.81818 v -2.27273 -2.27272 h -2.27272 -2.27274 v -2.27273 -2.27273 h -2.27272 -2.27272 v 2.27273 2.27273 h 2.27272 2.27272 v 2.27272 2.27273 h -2.27272 -2.27272 v 4.54545 4.54545 h 4.54544 4.54546 v 2.27273 2.27273 h -6.81818 -6.81818 v -2.27273 -2.27273 h -2.27272 -2.27274 v 6.81818 6.81818 h -2.27274 -2.2727 v -2.27272 -2.27272 h -4.54548 -4.54544 v -2.27274 -2.27272 h -2.27274 -2.27271 v 2.27272 2.27274 h -2.27273 -2.27274 v -4.54546 -4.54546 h -4.54544 -4.54546 v -2.27272 -2.27273 h 4.54546 4.54544 v -2.27273 -2.27272 h 2.27274 2.27273 v -4.54545 -4.54546 h 4.54545 4.54544 v 4.54546 4.54545 h 2.27274 2.27274 v 2.27272 2.27273 h 2.2727 2.27274 v -2.27273 -2.27272 h 2.27274 2.27272 v -2.27273 -2.27272 h -2.27272 -2.27274 v -2.27273 -2.27273 h 2.27274 2.27272 v -2.27272 -2.27273 h -2.27272 -2.27274 v 2.27273 2.27272 h -2.27274 -2.2727 v -6.81818 -6.81818 h -2.27274 -2.27274 v 4.54546 4.54545 h -2.2727 -2.27274 v -6.81819 -6.81817 h 2.27274 2.2727 v -4.54545 -4.54547 h 2.27274 2.27274 v 4.54547 4.54545 h 4.54544 4.54546 v 4.54545 4.54546 h 4.54546 4.54544 v 2.27272 2.27273 h 2.27274 2.27272 v 2.27273 2.27272 h 2.27273 2.27273 v 2.27273 2.27273 h 4.54545 4.54545 v -2.27273 -2.27273 h -4.54545 -4.54545 v -2.27272 -2.27273 h -2.27273 -2.27273 v -6.81819 -6.81817 h -2.27272 -2.27274 v -4.54545 -4.54547 h 2.27274 2.27272 v -2.27271 -2.27273 h -4.54546 -4.54544 v 2.27273 2.27271 h -2.27274 -2.27272 v -6.81818 -6.81818 h 2.27272 2.27274 v -2.272708 -2.272736 h 2.27272 2.27272 v -9.090914 -9.090898 h -4.54544 -4.54546 v -2.272733 -2.272716 h 4.54546 4.54544 v -2.272733 -2.272733 h -6.81818 -6.81818 V 67.965374 65.69264 h -6.81818 -6.81818 v 2.272734 2.272715 h -2.27274 -2.27271 v 2.272733 2.272733 h 6.81819 6.81818 v 4.545449 4.545449 h 2.2727 2.27274 v 6.818182 6.818181 h -2.27274 -2.2727 v 2.272736 2.272708 h 2.2727 2.27274 v 2.27274 2.27272 h -4.54544 -4.54548 v -2.27272 -2.27274 h -4.54544 -4.54545 v 6.81818 6.81818 h 2.27271 2.27274 v 4.54547 4.54545 h -2.27274 -2.27271 v 4.54545 4.54546 h -2.27273 -2.27274 v 6.81818 6.81818 h -2.27271 -2.27273 v 2.27272 2.27273 h -6.81819 -6.81818 v 2.27272 2.27273 h 2.27273 2.27272 v 2.27273 2.27272 h -4.54545 -4.54545 v -2.27272 -2.27273 h -2.27274 -2.27273 v -2.27273 -2.27272 h 2.27273 2.27274 v -4.54545 -4.54546 h -2.27274 -2.27273 v -2.27272 -2.27273 h 4.54547 4.54545 v 2.27273 2.27272 h 6.81818 6.81819 v -2.27272 -2.27273 h -2.27274 -2.27272 v -2.27273 -2.27272 h -2.27273 -2.27273 v -2.27274 -2.27272 h -2.27272 -2.27273 v -2.27272 -2.27273 h -2.27272 -2.27273 v 2.27273 2.27272 h -2.27274 -2.27273 v -2.27272 -2.27273 h -2.272723 -2.272728 v -2.27274 -2.27271 h -2.272726 -2.272728 v 4.54545 4.54545 h -4.545454 -4.545454 v -2.27272 -2.27273 h 2.272726 2.272728 v -2.27274 -2.27271 h -2.272728 -2.272726 v -2.27273 -2.27274 h 2.272726 2.272728 v -2.27271 -2.27273 h 2.272726 2.272728 v 2.27273 2.27271 h 2.272728 2.272726 v -9.0909 -9.090904 h -2.272726 -2.272728 v 4.545444 4.54546 h -2.272728 -2.272726 v -2.27272 -2.27274 h -4.545454 -4.545454 v 2.27274 2.27272 h -2.272728 -2.272727 v 2.27272 2.27274 h 2.272727 2.272728 v -2.27274 -2.27272 h 4.545454 4.545454 v 2.27272 2.27274 h -2.272728 -2.272726 v 2.27273 2.27271 h -2.272728 -2.272726 v 2.27274 2.27273 h 2.272726 2.272728 v 2.27271 2.27274 h -2.272728 -2.272726 v 4.54545 4.54546 h 4.545454 4.545454 v 2.27272 2.27273 h -4.545454 -4.545454 v 2.27273 2.27272 h 4.545454 4.545454 v -2.27272 -2.27273 h 2.272726 2.272728 v 2.27273 2.27272 h 4.545454 4.545451 v 2.27273 2.27273 h -2.272723 -2.272728 v 6.81817 6.81818 h -2.272726 -2.272728 v -2.27272 -2.27273 h -6.818182 -6.81818 v -2.27273 -2.27272 h 6.81818 6.818182 v -2.27273 -2.27272 h -6.818182 -6.81818 v 2.27272 2.27273 h -2.272728 -2.272727 v -2.27273 -2.27272 h -2.272727 -2.272726 v 6.81817 6.81818 h 2.272726 2.272727 v -2.27272 -2.27273 h 2.272727 2.272728 v 4.54545 4.54546 h 2.272726 2.272728 v 2.27272 2.27274 h 4.545454 4.545454 v 2.27272 2.27272 h 2.272728 2.272726 v -2.27272 -2.27272 h -2.272726 -2.272728 v -2.27274 -2.27272 h 4.545454 4.545451 v -2.27273 -2.27273 h 2.27273 2.27274 v 2.27273 2.27273 h 4.54545 4.54545 v 2.27272 2.27274 h -2.27272 -2.27273 v 4.54544 4.54546 h 4.54545 4.54546 v -6.81818 -6.81818 h 2.27272 2.27274 v 9.0909 9.09092 h 2.27273 2.27271 v 4.54544 4.54547 h -2.27271 -2.27273 v 2.27272 2.27273 h 6.81818 6.81818 z m -9.09092,-15.90909 v -4.54546 h 2.27274 2.27273 v -2.27272 -2.27272 h 2.27271 2.27274 v 4.54544 4.54546 h -2.27274 -2.27271 v 2.27272 2.27274 h -2.27273 -2.27274 z m 59.09091,-13.63636 v -4.54546 h 2.27273 2.27273 v 4.54546 4.54546 h -2.27273 -2.27273 z M 81.322927,163.41989 v -2.27273 h 4.545454 4.545454 v 2.27273 2.27273 h -4.545454 -4.545454 z m 31.818183,0 v -2.27273 h 2.27273 2.27273 v 2.27273 2.27273 h -2.27273 -2.27273 z m 54.54546,-4.54545 v -2.27273 h -2.27272 -2.27274 v -2.27273 -2.27272 h 2.27274 2.27272 v 2.27272 2.27273 h 4.54546 4.54545 v 2.27273 2.27272 h -4.54545 -4.54546 z M 90.413835,136.14717 v -2.27272 h 2.272728 2.272726 v 2.27272 2.27273 h -2.272726 -2.272728 z m 18.181825,0 v -2.27272 h 2.27273 2.27272 v 2.27272 2.27273 h -2.27272 -2.27273 z m 36.36365,-22.72726 v -2.27273 h 2.2727 2.27274 v 2.27273 2.27271 h -2.27274 -2.2727 z m -9.09092,-4.54547 v -2.27272 h 2.27274 2.2727 v 2.27272 2.27274 h -2.2727 -2.27274 z m 13.63636,-9.090888 v -2.272736 h 2.27274 2.27272 v -4.545448 -4.545466 h 2.27272 2.27274 v 4.545466 4.545448 h -2.27274 -2.27272 v 2.272736 2.272708 h -2.27272 -2.27274 z m -4.54544,-27.27273 v -2.272733 h 2.2727 2.27274 v 2.272733 2.272733 h -2.27274 -2.2727 z M 181.32293,181.6017 v -6.81818 h -6.81818 -6.81818 v 6.81818 6.81818 h 6.81818 6.81818 z m -9.0909,0 v -2.27272 h 2.27272 2.27273 v 2.27272 2.27274 h -2.27273 -2.27272 z m 18.18181,2.27274 v -4.54546 h -2.27273 -2.27273 v 4.54546 4.54544 h 2.27273 2.27273 z m -27.27273,-6.81818 v -2.27274 h -2.27272 -2.27272 v 2.27274 2.27272 h 2.27272 2.27272 z m -90.909092,-9.09092 v -2.27272 h -4.545453 -4.545454 v 2.27272 2.27274 h 4.545454 4.545453 z m 72.727292,-4.54545 v -2.27273 h -2.27274 -2.27274 v -2.27272 -2.27273 h -4.54544 -4.54545 v 2.27273 2.27272 h 4.54545 4.54544 v 2.27273 2.27273 h 2.27274 2.27274 z m 49.99999,-13.63636 v -2.27272 h -2.27274 -2.27272 v 2.27272 2.27273 h 2.27272 2.27274 z m -4.54546,-11.36363 v -4.54545 h -2.27273 -2.27273 v 4.54545 4.54545 h 2.27273 2.27273 z m 0,-11.36363 v -2.27273 h 2.27272 2.27274 v -6.81818 -6.81818 h 2.27272 2.27272 v -4.54546 -4.54546 h -2.27272 -2.27272 v 2.27274 2.27272 h -2.27274 -2.27272 v 4.54546 4.54544 h -2.27273 -2.27273 v 2.27274 2.27273 h -2.27272 -2.27273 v 2.27271 2.27274 h 2.27273 2.27272 v 2.27273 2.27272 h 2.27273 2.27273 z M 67.686565,122.5108 v -2.27271 h 2.272726 2.272727 v -2.27273 -2.27274 h -2.272727 -2.272726 v 2.27274 2.27273 h -2.272728 -2.272726 v -2.27273 -2.27274 h -2.272728 -2.272729 v 2.27274 2.27273 h 2.272729 2.272728 v 2.27271 2.27274 h 2.272726 2.272728 z m 59.090905,-15.90908 v -9.090904 h 2.27274 2.27273 v -2.272732 -2.272716 h -2.27273 -2.27274 v 2.272716 2.272732 h -2.27271 -2.27273 v 9.090904 9.0909 h 2.27273 2.27271 z m 13.63636,-11.363636 v -2.272716 h 2.27274 2.27274 v -2.272733 -2.272733 h -2.27274 -2.27274 v 2.272733 2.272733 h -2.2727 -2.27274 v 2.272716 2.272732 h 2.27274 2.2727 z M 113.14111,206.60172 v -4.54547 h 2.27273 2.27273 v 4.54547 4.54545 h -2.27273 -2.27273 z m 86.36363,-2.27274 v -2.27273 h 2.27274 2.27272 v 2.27273 2.27274 h -2.27272 -2.27274 z M 54.050201,99.783552 v -2.272736 h 2.272728 2.272725 v 2.272736 2.272708 h -2.272725 -2.272728 z m 54.545459,-4.545468 v -6.818182 h 2.27273 2.27272 v 6.818182 6.818176 h -2.27272 -2.27273 z M 54.050201,77.056271 v -15.90908 h 15.90909 15.90909 v 15.90908 15.909097 h -15.90909 -15.90909 z m 27.272726,0 V 65.69264 H 69.959291 58.595654 v 11.363631 11.363631 h 11.363637 11.363636 z m -18.181816,0 v -6.818182 h 6.81818 6.818182 v 6.818182 6.818182 h -6.818182 -6.81818 z m 109.090919,0 v -15.90908 h 15.90908 15.90909 v 15.90908 15.909097 h -15.90909 -15.90908 z m 27.27271,0 V 65.69264 h -11.36363 -11.36363 v 11.363631 11.363631 h 11.36363 11.36363 z m -18.18181,0 v -6.818182 h 6.81818 6.81819 v 6.818182 6.818182 h -6.81819 -6.81818 z m -77.27272,2.272733 v -4.545449 h -2.27274 -2.27273 v 2.272716 2.272733 h -4.545451 -4.545454 v -2.272733 -2.272716 h 4.545454 4.545451 V 72.510822 70.238089 H 94.959289 90.413835 V 65.69264 61.147191 h 9.090905 9.09092 v 9.090898 9.090915 h 2.27273 2.27272 v 2.272733 2.272716 h -4.54545 -4.54545 z m 0,-11.36363 V 65.69264 h -2.27274 -2.27273 v 2.272734 2.272715 h 2.27273 2.27274 z m 13.63636,11.36363 v -4.545449 h 2.27272 2.27274 v 4.545449 4.545449 h -2.27274 -2.27272 z M 113.14111,65.69264 v -4.545449 h 4.54546 4.54546 v 2.272716 2.272733 h -2.27274 -2.27272 v 2.272734 2.272715 h -2.27273 -2.27273 z"
       id="path2" /></g></svg>
